<svg id="wave" style="transform:rotate(0deg); transition: 0.3s" viewBox="0 0 1440 490" version="1.1" xmlns="http://www.w3.org/2000/svg"><defs><linearGradient id="sw-gradient-0" x1="0" x2="0" y1="1" y2="0"><stop stop-color="rgba(99, 102, 241, 1)" offset="0%"></stop><stop stop-color="rgba(255, 255, 255, 1)" offset="100%"></stop></linearGradient></defs><path style="transform:translate(0, 0px); opacity:1" fill="url(#sw-gradient-0)" d="M0,147L60,130.7C120,114,240,82,360,73.5C480,65,600,82,720,114.3C840,147,960,196,1080,196C1200,196,1320,147,1440,114.3C1560,82,1680,65,1800,114.3C1920,163,2040,278,2160,294C2280,310,2400,229,2520,187.8C2640,147,2760,147,2880,179.7C3000,212,3120,278,3240,310.3C3360,343,3480,343,3600,326.7C3720,310,3840,278,3960,277.7C4080,278,4200,310,4320,343C4440,376,4560,408,4680,367.5C4800,327,4920,212,5040,179.7C5160,147,5280,196,5400,204.2C5520,212,5640,180,5760,196C5880,212,6000,278,6120,302.2C6240,327,6360,310,6480,318.5C6600,327,6720,359,6840,326.7C6960,294,7080,196,7200,196C7320,196,7440,294,7560,318.5C7680,343,7800,294,7920,261.3C8040,229,8160,212,8280,212.3C8400,212,8520,229,8580,236.8L8640,245L8640,490L8580,490C8520,490,8400,490,8280,490C8160,490,8040,490,7920,490C7800,490,7680,490,7560,490C7440,490,7320,490,7200,490C7080,490,6960,490,6840,490C6720,490,6600,490,6480,490C6360,490,6240,490,6120,490C6000,490,5880,490,5760,490C5640,490,5520,490,5400,490C5280,490,5160,490,5040,490C4920,490,4800,490,4680,490C4560,490,4440,490,4320,490C4200,490,4080,490,3960,490C3840,490,3720,490,3600,490C3480,490,3360,490,3240,490C3120,490,3000,490,2880,490C2760,490,2640,490,2520,490C2400,490,2280,490,2160,490C2040,490,1920,490,1800,490C1680,490,1560,490,1440,490C1320,490,1200,490,1080,490C960,490,840,490,720,490C600,490,480,490,360,490C240,490,120,490,60,490L0,490Z"></path></svg>